<svg width="388" height="385" viewBox="0 0 388 385" fill="none" xmlns="http://www.w3.org/2000/svg">
<path fill-rule="evenodd" clip-rule="evenodd" d="M72.8858 74.5216C90.4318 43.9307 116.22 24.4184 150.251 15.9848C190.049 16.81 218.584 35.345 235.857 71.5898C244.28 92.5694 248.56 114.342 248.698 136.907C266.098 136.897 283.203 139.014 300.01 143.258C340.761 156.442 364.529 184.086 371.315 226.19C373.359 266.628 358.39 299.382 326.407 324.447C299.101 297.061 271.331 270.152 243.097 243.723C225.344 245.618 207.56 247.278 189.745 248.7C196.065 200.851 202.088 152.959 207.811 105.025C177.907 109.481 148.005 113.938 118.102 118.394C102.798 104.009 87.7256 89.3854 72.8858 74.5216Z" fill="#883AEA"/>
<path fill-rule="evenodd" clip-rule="evenodd" d="M337.468 190.015C341.029 193.525 344.59 197.035 348.15 200.545C344.64 204.106 341.13 207.667 337.62 211.227C334.059 207.717 330.498 204.207 326.938 200.697C330.448 197.136 333.958 193.575 337.468 190.015Z" fill="#FFFCFD"/>
<path fill-rule="evenodd" clip-rule="evenodd" d="M150.251 15.9848C116.22 24.4184 90.4318 43.9307 72.8858 74.5216C68.6129 70.3094 64.34 66.0972 60.0672 61.8849C70.7766 47.9318 81.2956 35.5995 96.5884 26.975C96.2763 24.1706 96.3849 22.8735 95.4797 20.2652C99.6198 18.1581 105.614 15.8763 109.932 14.1514C111.511 16.2061 112.824 18.4355 113.869 20.841C114.459 20.9549 115.05 21.068 115.639 21.1819C126.858 17.0298 138.395 15.2976 150.251 15.9848Z" fill="#360277"/>
<path fill-rule="evenodd" clip-rule="evenodd" d="M348.302 221.758C351.862 225.268 355.423 228.778 358.984 232.288C355.474 235.849 351.963 239.41 348.453 242.971C344.893 239.46 341.332 235.95 337.771 232.44C341.281 228.879 344.792 225.319 348.302 221.758Z" fill="#FFFCFD"/>
<path fill-rule="evenodd" clip-rule="evenodd" d="M228.546 285.547C247.417 303.685 271.757 328.85 289.449 347.693C269.886 352.435 240.794 354.883 220.546 353.488C186.268 348.286 157.256 345.428 122.877 341.458C123.05 344.296 120.571 343.724 119.021 346.082C114.889 344.693 106.744 342.748 102.376 342.311C102.114 339.818 99.7536 339.364 99.5074 336.675C91.4562 335.304 86.9833 336.044 78.9867 334.7C70.9817 284.462 62.9321 229.952 54.8978 179.658C54.0994 166.979 53.773 154.252 53.918 141.48C54.3661 135.311 55.3384 122.929 56.9257 117.063C71.7714 132.163 87.0063 153.032 102.538 166.943C120.121 163.941 137.78 161.223 155.514 158.786C150.069 205.609 148.605 248.165 142.698 295C172.021 291.846 199.22 288.233 228.546 285.547Z" fill="#883AEA"/>
<path fill-rule="evenodd" clip-rule="evenodd" d="M57.6479 119.179C56.0606 125.046 54.3661 135.311 53.918 141.48C53.773 154.252 54.0994 166.979 54.8978 179.658C62.9321 229.952 70.9614 281.633 78.9664 331.872C72.8297 331.435 66.6852 329.121 60.5518 327.76C51.8021 274.236 43.2869 220.674 35.0083 167.072C33.3252 146.846 34.3137 120.204 38.7761 100.575C45.0386 105.356 52.0486 113.202 57.6479 119.179Z" fill="#360277"/>
<path fill-rule="evenodd" clip-rule="evenodd" d="M113.705 344.352C112.983 342.236 112.26 340.119 111.538 338.003C145.917 341.973 204.955 348.65 221.579 349.592C238.203 350.534 241.026 349.807 253.403 350.072C265.779 350.337 282.719 345.973 282.719 345.973C264.783 326.425 246.03 307.938 226.46 290.512C197.134 293.198 167.809 296.118 138.486 299.272C144.393 252.438 150.069 205.609 155.514 158.786C137.78 161.223 120.121 163.941 102.538 166.943C81.8768 146.108 60.7539 125.752 39.1676 105.876L38.8267 107.646C34.3643 127.275 33.3252 146.846 35.0083 167.072C43.2869 220.674 51.8021 274.236 60.5518 327.76C78.9614 331.165 78.9615 331.165 78.9615 331.165L100.906 334.543C100.906 334.543 103.073 340.892 103.795 343.008C104.518 345.125 104.518 345.125 105.24 347.241C87.6956 344.192 56.4154 342.64 56.4154 342.64C56.4154 342.64 47.337 342.115 46.8621 341.647C46.3873 341.179 45.0212 331.407 45.0212 331.407C45.0212 331.407 27.4785 219.676 18.6898 159.41C17.6993 137.339 20.2559 115.754 26.3592 94.6534C18.0526 85.0618 9.26599 75.9322 0 67.2638C10.7644 56.3446 21.5294 45.4247 32.2938 34.5054C37.7535 39.8877 43.2132 45.27 48.673 50.6523C60.9908 35.2376 76.9292 22.631 94.3711 13.5554C95.8156 17.7879 95.8081 17.7659 96.5378 19.9041C97.9823 24.1365 98.7046 26.2527 99.4268 28.3689C84.134 36.9935 70.7766 47.9317 60.0672 61.8849C64.34 66.0972 68.6129 70.3094 72.8858 74.5216C87.7256 89.3854 102.798 104.009 118.102 118.394C148.005 113.938 177.907 109.481 207.811 105.025C202.088 152.959 196.065 200.851 189.745 248.7C207.56 247.278 225.344 245.618 243.097 243.723C271.331 270.152 299.101 297.061 326.407 324.447C358.39 299.382 373.359 266.628 371.315 226.19C364.529 184.086 340.761 156.442 300.01 143.258C283.203 139.014 266.098 136.897 248.698 136.907C248.56 114.342 244.28 92.5694 235.857 71.5898C218.584 35.345 190.049 16.81 150.251 15.9848C138.395 15.2976 115.639 21.1819 115.639 21.1819L111.402 21.9193C111.402 21.9193 109.672 16.8519 108.513 13.4544C107.791 11.3382 107.068 9.222 106.346 7.10578C159.861 -9.96904 206.04 3.72576 240.64 48.2205C254.833 70.8752 262.434 95.4529 263.441 121.952C298.555 122.566 329.283 134.604 355.625 158.064C387.584 194.344 395.301 235.185 378.775 280.585C369.754 302.394 356.096 320.759 337.801 335.68C343.261 341.063 348.721 346.444 354.181 351.827C343.416 362.746 332.651 373.666 321.887 384.585C313.087 375.444 303.833 366.789 294.124 358.62C270.121 366.223 220.266 363.744 220.266 363.744C220.266 363.744 150.554 355.403 115.871 350.7C114.919 349.018 114.427 346.468 113.705 344.352Z" fill="#030202"/>
<path fill-rule="evenodd" clip-rule="evenodd" d="M29.031 72.7135C32.5917 76.2237 29.7381 72.7084 33.2988 76.2186C36.5752 72.8951 38.0959 71.3526 41.3723 68.029C38.5338 66.635 44.1804 65.1805 45.9608 66.9356C73.017 92.9059 86.9088 107.303 113.97 133.98C139.634 130.026 165.298 126.071 190.962 122.116C185.174 169.771 179.386 217.425 173.598 265.08C195.246 262.654 216.915 260.378 238.604 258.251C269.939 289.141 300.922 320.387 332.963 351.271C329.102 355.188 325.474 358.868 321.73 362.665C291.82 333.18 262.267 304.045 232.357 274.56C206.897 276.713 181.457 279.016 156.037 281.469C162.127 234.327 167.919 187.144 173.411 139.92C151.515 143.376 129.619 146.833 107.722 150.289C79.2368 122.207 57.5166 100.795 29.031 72.7135Z" fill="#EA793A"/>
<path fill-rule="evenodd" clip-rule="evenodd" d="M34.5665 55.7029C38.3646 59.4471 42.1627 63.1913 45.9608 66.9356C42.2163 70.7339 38.4726 74.5314 34.7282 78.3298C30.9301 74.5856 27.132 70.8414 23.3339 67.0972C27.0784 63.2988 30.8221 59.5013 34.5665 55.7029Z" fill="#953C0B"/>
</svg>
