<svg width="964" height="325" viewBox="0 0 964 325" fill="none" xmlns="http://www.w3.org/2000/svg">
<path fill-rule="evenodd" clip-rule="evenodd" d="M61.55 62.9757C76.3672 37.1243 98.1449 20.6352 126.883 13.5082C160.491 14.2056 184.588 29.8689 199.175 60.4981C206.288 78.2273 209.903 96.6263 210.019 115.696C224.713 115.687 239.157 117.476 253.35 121.063C287.763 132.203 307.835 155.565 313.565 191.145C315.291 225.319 302.65 252.997 275.642 274.179C252.583 251.036 229.132 228.297 205.289 205.962C190.297 207.564 175.279 208.966 160.234 210.168C165.572 169.732 170.658 129.26 175.491 88.7531C150.238 92.5189 124.986 96.2848 99.7335 100.051C86.8099 87.8948 74.0819 75.5366 61.55 62.9757Z" fill="#7864EA"/>
<path fill-rule="evenodd" clip-rule="evenodd" d="M284.983 160.575C287.99 163.541 290.996 166.508 294.003 169.474C291.039 172.483 288.075 175.492 285.111 178.501C282.104 175.535 279.097 172.568 276.09 169.602C279.054 166.593 282.018 163.584 284.983 160.575Z" fill="#FFFCFD"/>
<path fill-rule="evenodd" clip-rule="evenodd" d="M126.883 13.5082C98.1449 20.6352 76.3672 37.1243 61.55 62.9757C57.9417 59.4161 54.3334 55.8565 50.7251 52.2969C59.7689 40.5055 68.6519 30.084 81.5662 22.7956C81.3027 20.4258 81.3944 19.3296 80.63 17.1254C84.1262 15.3448 89.188 13.4165 92.8347 11.9589C94.1678 13.6953 95.2764 15.5792 96.1593 17.612C96.6575 17.7082 97.1562 17.8039 97.6543 17.9001C107.128 14.3913 116.871 12.9275 126.883 13.5082Z" fill="#360277"/>
<path fill-rule="evenodd" clip-rule="evenodd" d="M294.131 187.4C297.138 190.366 300.145 193.333 303.152 196.299C300.188 199.308 297.224 202.317 294.259 205.326C291.252 202.36 288.245 199.394 285.239 196.427C288.203 193.418 291.167 190.409 294.131 187.4Z" fill="#FFFCFD"/>
<path fill-rule="evenodd" clip-rule="evenodd" d="M193.001 241.306C208.937 256.634 229.491 277.9 244.432 293.823C227.912 297.831 203.344 299.899 186.245 298.721C157.299 294.324 132.798 291.91 103.766 288.554C103.912 290.953 101.819 290.47 100.51 292.462C97.0205 291.289 90.1421 289.645 86.4539 289.276C86.2323 287.169 84.2392 286.785 84.0313 284.512C77.2323 283.354 73.455 283.979 66.7021 282.844C59.9422 240.389 53.1445 194.325 46.3597 151.823C45.6855 141.108 45.4099 130.353 45.5323 119.56C45.9107 114.347 46.7317 103.884 48.0722 98.9261C60.609 111.687 73.4744 129.322 86.5905 141.078C101.439 138.541 116.351 136.244 131.327 134.185C126.729 173.754 125.493 209.716 120.505 249.294C145.267 246.629 168.236 243.576 193.001 241.306Z" fill="#7864EA"/>
<path fill-rule="evenodd" clip-rule="evenodd" d="M48.6821 100.714C47.3416 105.672 45.9107 114.347 45.5323 119.56C45.4099 130.353 45.6855 141.108 46.3597 151.823C53.1445 194.325 59.925 237.999 66.6849 280.454C61.5027 280.084 56.3139 278.129 51.1344 276.979C43.7455 231.748 36.5546 186.484 29.5636 141.187C28.1422 124.095 28.977 101.58 32.7454 84.9929C38.0338 89.0328 43.9536 95.6629 48.6821 100.714Z" fill="#360277"/>
<path fill-rule="evenodd" clip-rule="evenodd" d="M96.0206 291C95.4107 289.212 94.8008 287.423 94.1908 285.635C123.223 288.99 173.079 294.632 187.117 295.428C201.156 296.224 203.54 295.61 213.992 295.834C224.443 296.058 238.749 292.37 238.749 292.37C223.602 275.851 207.766 260.228 191.239 245.502C166.474 247.772 141.71 250.24 116.947 252.905C121.936 213.326 126.729 173.754 131.327 134.185C116.351 136.244 101.439 138.541 86.5905 141.078C69.1427 123.471 51.305 106.269 33.076 89.4722L32.7881 90.9682C29.0197 107.556 28.1422 124.095 29.5636 141.187C36.5546 186.484 43.7455 231.748 51.1344 276.979C66.6807 279.856 66.6808 279.856 66.6808 279.856L85.2128 282.711C85.2128 282.711 87.0425 288.076 87.6524 289.865C88.2623 291.653 88.2623 291.653 88.8722 293.441C74.0565 290.865 47.6413 289.553 47.6413 289.553C47.6413 289.553 39.9748 289.11 39.5738 288.714C39.1728 288.319 38.0192 280.061 38.0192 280.061C38.0192 280.061 23.2048 185.641 15.783 134.712C14.9465 116.061 17.1056 97.8194 22.2597 79.9884C15.2449 71.8828 7.82488 64.1677 0 56.8424C9.09021 47.6149 18.181 38.3868 27.2712 29.1594C31.8818 33.7078 36.4924 38.2561 41.103 42.8046C51.5051 29.7781 64.9646 19.1247 79.6938 11.4552C80.9137 15.0319 80.9073 15.0133 81.5236 16.8203C82.7434 20.397 83.3533 22.1853 83.9632 23.9736C71.0489 31.262 59.7689 40.5055 50.7251 52.2969C54.3334 55.8565 57.9417 59.4161 61.55 62.9757C74.0819 75.5366 86.8099 87.8948 99.7335 100.051C124.986 96.2848 150.238 92.5189 175.491 88.7531C170.658 129.26 165.572 169.732 160.234 210.168C175.279 208.966 190.297 207.564 205.289 205.962C229.132 228.297 252.583 251.036 275.642 274.179C302.65 252.997 315.291 225.319 313.565 191.145C307.835 155.565 287.763 132.203 253.35 121.063C239.157 117.476 224.713 115.687 210.019 115.696C209.903 96.6263 206.288 78.2273 199.175 60.4981C184.588 29.8689 160.491 14.2056 126.883 13.5082C116.871 12.9275 97.6543 17.9001 97.6543 17.9001L94.0758 18.5233C94.0758 18.5233 92.6154 14.2409 91.6362 11.3699C91.0263 9.58154 90.4164 7.7932 89.8065 6.00485C134.998 -8.4245 173.995 3.14851 203.214 40.7496C215.2 59.8942 221.618 80.664 222.469 103.058C252.121 103.577 278.071 113.749 300.316 133.575C327.304 164.234 333.821 198.747 319.865 237.113C312.247 255.543 300.713 271.063 285.264 283.672C289.875 288.22 294.485 292.768 299.096 297.317C290.006 306.544 280.915 315.773 271.825 325C264.394 317.275 256.578 309.961 248.379 303.058C228.11 309.483 186.008 307.388 186.008 307.388C186.008 307.388 127.139 300.339 97.8503 296.365C97.0461 294.943 96.6305 292.788 96.0206 291Z" fill="#030202"/>
<path fill-rule="evenodd" clip-rule="evenodd" d="M24.5159 61.4477C27.5228 64.414 25.113 61.4434 28.12 64.4098C30.8868 61.6012 32.1709 60.2976 34.9378 57.489C32.5408 56.311 37.3092 55.0818 38.8126 56.565C61.6609 78.5117 73.3921 90.6779 96.2446 113.222C117.917 109.88 139.59 106.538 161.262 103.196C156.374 143.467 151.487 183.739 146.599 224.01C164.88 221.96 183.179 220.036 201.495 218.239C227.956 244.343 254.12 270.748 281.178 296.847C277.917 300.157 274.854 303.267 271.692 306.476C246.434 281.559 221.477 256.938 196.219 232.021C174.719 233.841 153.236 235.787 131.769 237.86C136.912 198.022 141.803 158.149 146.441 118.242C127.95 121.162 109.459 124.084 90.9686 127.004C66.9134 103.273 48.5712 85.1785 24.5159 61.4477Z" fill="#EA793A"/>
<path fill-rule="evenodd" clip-rule="evenodd" d="M29.1905 47.0727C32.3979 50.2368 35.6052 53.4009 38.8126 56.565C35.6505 59.7748 32.4891 62.984 29.327 66.1939C26.1196 63.0297 22.9122 59.8656 19.7049 56.7015C22.867 53.4917 26.0284 50.2825 29.1905 47.0727Z" fill="#953C0B"/>
<path d="M479.856 164.896C479.856 179.872 473.376 191.248 460.416 199.024C467.472 201.616 473.376 206.08 478.128 212.416C482.88 218.752 485.256 227.752 485.256 239.416C485.256 250.936 480.936 260.08 472.296 266.848C463.8 273.616 451.56 277 435.576 277H384.6C382.152 277 380.136 276.208 378.552 274.624C376.968 272.896 376.176 270.664 376.176 267.928V129.688C376.176 128.104 376.392 127.096 376.824 126.664C377.4 126.088 378.48 125.8 380.064 125.8H429.312C463.008 125.8 479.856 138.832 479.856 164.896ZM417.648 160.792V189.088H418.728C432.552 189.088 439.464 184.48 439.464 175.264C439.464 170.224 438.096 166.552 435.36 164.248C432.768 161.944 428.376 160.792 422.184 160.792H417.648ZM417.648 214.576V242.656H421.536C427.728 242.656 432.264 241.504 435.144 239.2C438.024 236.896 439.464 233.224 439.464 228.184C439.464 223.144 438.096 219.616 435.36 217.6C432.768 215.584 428.376 214.576 422.184 214.576H417.648ZM553.026 123.856C563.538 123.856 572.754 125.368 580.674 128.392C588.738 131.272 592.77 135.232 592.77 140.272C592.77 145.312 590.826 151.576 586.938 159.064C583.194 166.408 580.026 170.08 577.434 170.08C576.714 170.08 575.85 169.72 574.842 169C573.978 168.136 571.818 167.272 568.362 166.408C565.05 165.4 562.17 164.896 559.722 164.896C551.37 164.896 544.602 167.848 539.418 173.752C534.378 179.656 531.858 188.728 531.858 200.968C531.858 213.064 534.45 222.064 539.634 227.968C544.962 233.872 551.658 236.824 559.722 236.824C563.034 236.824 566.706 236.392 570.738 235.528C574.914 234.52 577.866 233.152 579.594 231.424C579.882 231.136 580.458 230.992 581.322 230.992C582.186 230.992 583.77 232.648 586.074 235.96C588.522 239.128 590.754 243.376 592.77 248.704C594.786 253.888 595.794 257.92 595.794 260.8C595.794 266.416 591.474 270.88 582.834 274.192C574.194 277.504 563.97 279.16 552.162 279.16C533.154 279.16 517.53 272.464 505.29 259.072C493.05 245.68 486.93 226.816 486.93 202.48C486.93 178 493.194 158.776 505.722 144.808C518.394 130.84 534.162 123.856 553.026 123.856ZM614.056 198.592C610.024 191.392 608.008 185.56 608.008 181.096C608.008 176.488 609.232 173.536 611.68 172.24C619.888 168.64 631.12 166.84 645.376 166.84C659.776 166.84 669.928 170.224 675.832 176.992C681.736 183.616 684.688 193.48 684.688 206.584V240.712H692.032C694.48 240.712 696.352 242.152 697.648 245.032C699.088 247.912 699.808 251.872 699.808 256.912C699.808 261.952 698.512 266.92 695.92 271.816C693.472 276.712 690.088 279.16 685.768 279.16C677.992 279.16 671.728 277.072 666.976 272.896C664.816 271.168 663.16 269.08 662.008 266.632C655.384 274.984 645.088 279.16 631.12 279.16C620.608 279.16 611.752 275.416 604.552 267.928C597.352 260.44 593.752 251.584 593.752 241.36C593.752 217.888 607.792 206.152 635.872 206.152H647.752V203.992C647.752 200.248 647.104 197.872 645.808 196.864C644.656 195.712 641.848 195.136 637.384 195.136C631.912 195.136 624.136 196.288 614.056 198.592ZM631.336 238.336C631.336 241.504 632.2 243.952 633.928 245.68C635.656 247.264 637.816 248.056 640.408 248.056C643.144 248.056 645.592 246.976 647.752 244.816V228.184H641.704C634.792 228.184 631.336 231.568 631.336 238.336ZM748.538 276.784C748.538 277.792 741.986 278.296 728.882 278.296C715.778 278.008 709.226 277.432 709.226 276.568V204.856H703.394C701.09 204.856 699.218 203.488 697.778 200.752C696.482 197.872 695.834 194.344 695.834 190.168C695.834 174.616 700.442 166.84 709.658 166.84C716.138 166.84 721.538 168.856 725.858 172.888C730.178 176.776 732.338 181.24 732.338 186.28C735.362 180.376 739.394 175.696 744.434 172.24C749.618 168.64 754.874 166.84 760.202 166.84C768.554 166.84 773.594 169 775.322 173.32C775.754 174.472 775.97 176.2 775.97 178.504C775.97 180.664 775.25 184.624 773.81 190.384C772.514 196.144 771.146 200.32 769.706 202.912C768.266 205.504 767.402 206.8 767.114 206.8C766.826 206.8 765.458 206.296 763.01 205.288C760.706 204.136 758.618 203.56 756.746 203.56C751.274 203.56 748.538 207.88 748.538 216.52V276.784ZM857.723 271.168C848.651 276.496 836.987 279.16 822.731 279.16C808.475 279.16 796.451 274.336 786.659 264.688C776.867 254.896 771.971 241.432 771.971 224.296C771.971 207.016 776.651 193.12 786.011 182.608C795.515 172.096 807.467 166.84 821.867 166.84C836.267 166.84 847.355 170.512 855.131 177.856C863.051 185.2 867.011 194.128 867.011 204.64C867.011 227.968 853.619 239.632 826.835 239.632H811.931C811.931 243.952 813.083 246.976 815.387 248.704C817.835 250.288 821.363 251.08 825.971 251.08C836.051 251.08 845.627 248.776 854.699 244.168C854.843 244.024 855.491 245.032 856.643 247.192C860.099 253.384 861.827 258.64 861.827 262.96C861.827 267.136 860.459 269.872 857.723 271.168ZM830.723 208.744C830.723 202.696 827.771 199.672 821.867 199.672C819.131 199.672 816.755 200.536 814.739 202.264C812.867 203.848 811.931 206.224 811.931 209.392V216.088H823.595C828.347 216.088 830.723 213.64 830.723 208.744Z" fill="white"/>
</svg>
